<?xml version="1.0" standalone="no"?>
<!DOCTYPE svg PUBLIC "-//W3C//DTD SVG 20010904//EN"
 "http://www.w3.org/TR/2001/REC-SVG-20010904/DTD/svg10.dtd">
<svg version="1.0" xmlns="http://www.w3.org/2000/svg"
 width="383.000000pt" height="500.000000pt" viewBox="0 0 383.000000 500.000000"
 preserveAspectRatio="xMidYMid meet">

<g transform="translate(0.000000,500.000000) scale(0.100000,-0.100000)"
fill="#000000" stroke="none">
<path d="M2 4438 l3 -563 1348 -3 1347 -2 0 -760 0 -760 -1350 0 -1350 0 0
-613 0 -612 558 -558 c306 -306 560 -557 565 -557 4 0 7 275 7 610 l0 610 785
0 785 0 0 560 0 560 565 0 565 0 0 738 -1 737 -582 588 -582 588 -1333 -1
-1332 0 2 -562z"/>
</g>
</svg>
